<svg width="207" height="194" viewBox="0 0 207 194" xmlns="http://www.w3.org/2000/svg" xmlns:xlink="http://www.w3.org/1999/xlink"><svg viewBox="-1 -1 514 514" width="66" height="66" id="bars" y="61.53" xmlns="http://www.w3.org/2000/svg"><path d="M512 256c0 47.966-13.191 92.856-36.152 131.228a257.177 257.177 0 0 1-78.855 82.463 255.305 255.305 0 0 1-41.426 22.217c-24.56 10.381-51.086 17.032-78.855 19.253-6.828.555-13.746.833-20.719.833-6.973 0-13.879-.278-20.707-.822-27.769-2.232-54.294-8.883-78.855-19.264a254.75 254.75 0 0 1-41.415-22.206 257.142 257.142 0 0 1-78.855-82.452C13.202 348.867 0 303.977 0 256 0 114.612 114.618.006 255.994.006 397.382.006 512 114.612 512 256z" fill="#a35895"/><path d="M300.892 160.558h79.301v-30.497h-48.804V96.24h-30.497v33.822h-3.963c-24.766 0-44.842 20.077-44.842 44.842 0 24.766 20.077 44.842 44.842 44.842h38.42c7.923 0 14.345 6.423 14.345 14.345 0 7.923-6.423 14.345-14.345 14.345h-83.264v30.497h48.805v33.822h30.497v-33.822h3.962c24.766 0 44.842-20.077 44.842-44.842v-.001c0-24.766-20.077-44.842-44.842-44.842h-38.42c-7.923 0-14.345-6.423-14.345-14.345 0-7.923 6.423-14.345 14.345-14.345h3.963z" fill="#f0a037"/><path d="M115.018 254.079v215.623a257.142 257.142 0 0 1-78.855-82.452V254.079h78.855z" fill="#e6e6e6"/><path d="M235.287 119.731v391.442c-27.769-2.232-54.294-8.883-78.855-19.264V119.731h78.855z" fill="#53b8d3"/><path d="M355.568 382.876v109.033c-24.56 10.381-51.086 17.032-78.855 19.253V382.876h78.855z" fill="#55c6a1"/><path d="M475.848 10.92v376.308a257.177 257.177 0 0 1-78.855 82.463V10.92h78.855z" fill="#42577f"/></svg><svg width="66" height="66" viewBox="-1 -1 514 514" id="book" x="66" y="61.53" xmlns="http://www.w3.org/2000/svg"><circle cx="256" cy="256" r="256" fill="#4ab8a1"/><path d="M503.9 320.14L432 140c0-4.4-3.6-8-8-8h-4v-1.852c-1.296-.26-2.628-.536-4-.828V124c-20-4-47.816-12-92-12s-64 8-68 12c-.292-.296-.704-.616-1.172-.948-.124-.088-.272-.18-.416-.272a21.15 21.15 0 0 0-1.396-.832c-.156-.084-.3-.168-.472-.256-2.252-1.18-5.484-2.464-9.764-3.708a.646.646 0 0 1-.056-.012c-4.416-1.28-9.984-2.5-16.796-3.508C216.04 113 203.564 112 188 112c-44.184 0-72 8-92 12v8h-8c-4.4 0-8 3.6-8 8v236l39.116 96.28C158.72 497.4 205.636 512 256 512c119.244 0 219.428-81.516 247.9-191.86z" fill="#43a691"/><path d="M424 132H88c-4.4 0-8 3.6-8 8v232c0 4.4 3.6 8 8 8h140c0 8.836 12.54 16 28 16s28-7.164 28-16h140c4.4 0 8-3.6 8-8V140c0-4.4-3.6-8-8-8z" fill="#cc584c"/><path fill="#bf5347" d="M264 132h160v236H264z"/><path d="M424 372H284c0 8.836-12.54 16-28 16s-28-7.164-28-16H88c-4.4 0-8-3.6-8-8v8c0 4.4 3.6 8 8 8h140c0 8.836 12.54 16 28 16s28-7.164 28-16h140c4.4 0 8-3.6 8-8v-8c0 4.4-3.6 8-8 8z" fill="#994239"/><path d="M188 112c-44.184 0-72 8-92 12v240h160V124c-4-4-23.816-12-68-12z" fill="#fff8e6"/><path d="M256 364c0-11.044-23.816-20-68-20s-84 12-92 20h160z" fill="#e6dbc3"/><path d="M324 112c44.184 0 72 8 92 12v240H256V124c4-4 23.816-12 68-12z" fill="#fff8e6"/><path d="M256 364c0-11.044 23.816-20 68-20s84 12 92 20H256z" fill="#e6dbc3"/><path d="M256 340V124c-2.584-2.592-11.884-6.852-30.072-9.536L256 340z" fill="#f2e7ce"/><path fill="#bf5347" d="M100 364h164v4H100z"/><path d="M400 164H272v-28c46.728-7.228 81.272-7.232 128 0v28zm-108 20h108v8H292zm-20 16h128v8H272zm0 16h128v8H272zm0 16h128v8H272zm0 16h128v8H272zm0 16h128v8H272zm0 16h128v8H272zm0 16h128v8H272zm0 16h108v8H272zM136 140h108v8H136zm-20 16h128v8H116zm0 16h128v8H116zm0 16h128v8H116zm0 16h128v8H116zm0 16h128v8H116zm0 16h128v8H116zm0 16h128v8H116zm0 16h108v8H116z" fill="#f2e7ce"/></svg><svg width="62" height="66" viewBox="-1 -1 384 384" id="linkedin" x="144.4" xmlns="http://www.w3.org/2000/svg"><path d="M347.445 0H34.555C15.471 0 0 15.471 0 34.555v312.889C0 366.529 15.471 382 34.555 382h312.889C366.529 382 382 366.529 382 347.444V34.555C382 15.471 366.529 0 347.445 0zM118.207 329.844c0 5.554-4.502 10.056-10.056 10.056H65.345c-5.554 0-10.056-4.502-10.056-10.056V150.403c0-5.554 4.502-10.056 10.056-10.056h42.806c5.554 0 10.056 4.502 10.056 10.056v179.441zM86.748 123.432c-22.459 0-40.666-18.207-40.666-40.666S64.289 42.1 86.748 42.1s40.666 18.207 40.666 40.666-18.206 40.666-40.666 40.666zM341.91 330.654a9.247 9.247 0 0 1-9.246 9.246H286.73a9.247 9.247 0 0 1-9.246-9.246v-84.168c0-12.556 3.683-55.021-32.813-55.021-28.309 0-34.051 29.066-35.204 42.11v97.079a9.246 9.246 0 0 1-9.246 9.246h-44.426a9.247 9.247 0 0 1-9.246-9.246V149.593a9.247 9.247 0 0 1 9.246-9.246h44.426a9.247 9.247 0 0 1 9.246 9.246v15.655c10.497-15.753 26.097-27.912 59.312-27.912 73.552 0 73.131 68.716 73.131 106.472v86.846z" fill="#0077b7"/></svg><svg width="66" height="66" viewBox="-1 -1 190.15 190.15" id="man" y="127.53" xmlns="http://www.w3.org/2000/svg"><defs><circle id="da" cx="94.074" cy="94.074" r="94.074"/></defs><use xlink:href="#da" overflow="visible" fill="#eb6d4a"/><clipPath id="db"><use xlink:href="#da" overflow="visible"/></clipPath><path d="M135.938 52.784V84.05c0 .453-.011.905-.021 1.357-.02.936-.072 1.871-.154 2.796-.02.319-.052.637-.093.956a49.422 49.422 0 0 1-.555 3.928c-.083.432-.165.853-.258 1.275-.01.092-.03.175-.051.257-.083.432-.186.854-.288 1.275-.041.226-.103.452-.154.679-.052.195-.103.391-.164.586a49.465 49.465 0 0 1-.721 2.488c-.123.391-.246.771-.38 1.162-.011.041-.031.082-.041.123l-.37 1.048c-.041.103-.082.205-.124.319-.123.329-.246.658-.38.987-.154.401-.318.792-.483 1.183-.144.35-.298.699-.452 1.049-.02.062-.052.113-.072.174-.175.37-.339.741-.514 1.1-.175.38-.36.761-.556 1.142a57.62 57.62 0 0 1-1.172 2.231l-.556.987a60.434 60.434 0 0 1-5.253 7.649c-.258.339-.524.668-.802.987-.381.462-.772.915-1.162 1.357-.35.391-.699.781-1.059 1.162a55.735 55.735 0 0 1-3.023 3.013c-.205.206-.422.391-.638.586a27.8 27.8 0 0 1-1.059.925c-.277.247-.565.483-.854.72-.74.606-1.48 1.192-2.23 1.737-.309.237-.628.463-.946.679-.514.37-1.038.72-1.563 1.059-.288.195-.586.38-.885.555a37.177 37.177 0 0 1-3.156 1.758 31.03 31.03 0 0 1-2.591 1.182 3.199 3.199 0 0 1-.401.154c-.4.165-.812.319-1.213.452a21.9 21.9 0 0 1-1.521.483c-.35.103-.709.195-1.059.277a.142.142 0 0 1-.072.021c-.35.082-.699.165-1.049.226a2.446 2.446 0 0 1-.277.051c-.288.051-.576.103-.864.134-.411.062-.822.113-1.233.134-.143.02-.277.031-.422.031-.328.021-.657.031-.977.031h-.03c-.319 0-.638-.01-.956-.031-.124 0-.247-.01-.371-.031a9.291 9.291 0 0 1-.894-.083c-.062 0-.134-.01-.195-.02a23.7 23.7 0 0 1-1.152-.185 12.372 12.372 0 0 1-.997-.206 29.481 29.481 0 0 1-5.397-1.82 39.352 39.352 0 0 1-4.719-2.488 45.864 45.864 0 0 1-2.365-1.542c-.391-.278-.781-.555-1.172-.843a51.906 51.906 0 0 1-3.63-2.92c-.328-.298-.657-.596-.986-.905-.329-.298-.658-.606-.977-.904a51.309 51.309 0 0 1-2.345-2.406 42.153 42.153 0 0 1-.895-.987 49.821 49.821 0 0 1-2.385-2.879c-.299-.36-.576-.73-.854-1.1a57.985 57.985 0 0 1-2.951-4.308 82.87 82.87 0 0 1-.729-1.213c-.288-.483-.565-.976-.843-1.47a56.061 56.061 0 0 1-2.797-5.758c-.123-.288-.247-.576-.35-.863-.165-.37-.309-.751-.442-1.121-.205-.545-.4-1.09-.586-1.635-.185-.545-.359-1.1-.534-1.655a40.966 40.966 0 0 1-.463-1.614 31.382 31.382 0 0 1-.452-1.758c-.011-.062-.031-.123-.041-.185a48.874 48.874 0 0 1-1.018-5.881c-.051-.36-.082-.72-.113-1.08-.041-.38-.071-.751-.092-1.131a46.27 46.27 0 0 1-.104-2.087c-.01-.453-.021-.905-.021-1.357V52.784c0-23.102 18.723-41.834 41.825-41.855h.041c3.188 0 6.292.359 9.273 1.028a41.237 41.237 0 0 1 7.835 2.622 41.526 41.526 0 0 1 9.387 5.809 41.526 41.526 0 0 1 6.446 6.58 41.644 41.644 0 0 1 8.917 25.816z" clip-path="url(#db)" fill="#ecc19c"/><path d="M148.613 200.741v.01H39.538v-.01a54.262 54.262 0 0 1 4.02-20.573v-.01c.4-.977.822-1.933 1.274-2.879a53.983 53.983 0 0 1 6.642-10.59 56.056 56.056 0 0 1 2.016-2.365 35.61 35.61 0 0 1 1.059-1.151c.36-.37.72-.74 1.09-1.11a54.274 54.274 0 0 1 5.892-5.079 55.912 55.912 0 0 1 3.177-2.19c1.09-.689 2.2-1.347 3.331-1.964.021-.02.041-.02.041-.02.442-.236.874-.493 1.306-.761a31.16 31.16 0 0 0 2.499-1.665c.411-.288.802-.586 1.192-.905a36.407 36.407 0 0 0 2.673-2.365c.277-.277.556-.555.833-.843a32.167 32.167 0 0 0 1.645-1.861c.258-.308.515-.627.751-.946.247-.318.483-.647.72-.977 1.83-2.55 3.3-5.356 4.38-8.349a34.405 34.405 0 0 0 2.015-11.649l7.948.041 8.173.041c0 4.04.689 7.916 1.964 11.515a34.31 34.31 0 0 0 4.329 8.359 34.484 34.484 0 0 0 6.631 7.042c.381.309.761.607 1.142.884.37.278.75.545 1.141.802a20.672 20.672 0 0 0 1.368.885c.421.257.854.514 1.285.751.071.02.134.051.185.093.905.504 1.8 1.028 2.674 1.573.421.257.843.524 1.254.823a41.236 41.236 0 0 1 2.498 1.758c0 .011.011.011.011.011h.01a55.052 55.052 0 0 1 5.881 5.079c9.908 9.869 16.025 23.502 16.025 38.595z" clip-path="url(#db)" fill="#ecc19c"/><path d="M148.614 200.743H39.539a54.285 54.285 0 0 1 4.02-20.573c-.011-.011 0-.011 0-.011.391-.977.822-1.933 1.274-2.878a53.983 53.983 0 0 1 6.642-10.59 56.165 56.165 0 0 1 2.016-2.365 35.61 35.61 0 0 1 1.059-1.151c.36-.37.72-.74 1.09-1.11a54.164 54.164 0 0 1 9.069-7.269c1.09-.699 2.2-1.357 3.331-1.974.021-.02.041-.01.041-.01v-.01c.442-.247.874-.494 1.306-.751a31.773 31.773 0 0 0 3.671-2.591l.021.02c5.325 5.449 12.738 8.831 20.964 8.852h.082c8.225 0 15.669-3.393 21.015-8.842l.011-.01c.729.606 1.49 1.172 2.272 1.696.082.061.154.113.236.164.37.247.75.483 1.131.72.422.257.854.504 1.285.74.072.02.123.061.185.092.905.504 1.8 1.028 2.674 1.583.421.257.843.524 1.254.823a37.206 37.206 0 0 1 2.498 1.758h.021a54.453 54.453 0 0 1 5.881 5.089c9.909 9.872 16.026 23.505 16.026 38.598z" clip-path="url(#db)" fill="#c7d4e2"/><path d="M135.938 84.05c0 .453-.011.905-.021 1.357-.02.936-.072 1.871-.154 2.796-.02.319-.052.637-.093.956a49.422 49.422 0 0 1-.555 3.928c-.083.432-.165.853-.258 1.275-.01.092-.03.175-.051.257-.083.432-.186.854-.288 1.275a8.077 8.077 0 0 1-.186.72 4.61 4.61 0 0 1-.133.545 49.465 49.465 0 0 1-.721 2.488c-.123.391-.246.771-.38 1.162-.011.041-.031.082-.041.123l-.37 1.048c-.041.103-.082.205-.124.319-.123.329-.246.658-.38.987-.154.401-.318.792-.483 1.183-.144.35-.298.699-.452 1.049-.02.062-.052.113-.072.174-.175.37-.339.741-.514 1.1-.175.38-.36.761-.556 1.142a57.62 57.62 0 0 1-1.172 2.231l-.556.987a60.434 60.434 0 0 1-5.253 7.649c-.258.339-.524.668-.802.987-.381.462-.772.915-1.162 1.357-.35.391-.699.781-1.059 1.162a55.735 55.735 0 0 1-3.023 3.013c-.205.206-.422.391-.638.586a27.8 27.8 0 0 1-1.059.925c-.277.247-.565.483-.854.72-.74.606-1.48 1.192-2.23 1.737-.309.237-.628.463-.946.679-.514.37-1.038.72-1.563 1.059-.288.195-.586.38-.885.555a37.177 37.177 0 0 1-3.156 1.758 31.03 31.03 0 0 1-2.591 1.182 3.199 3.199 0 0 1-.401.154c-.4.165-.812.319-1.213.452a21.9 21.9 0 0 1-1.521.483c-.35.103-.709.195-1.059.277a.142.142 0 0 1-.072.021c-.35.082-.699.165-1.049.226a2.446 2.446 0 0 1-.277.051c-.288.051-.576.103-.864.134-.411.062-.822.113-1.233.134-.143.02-.277.031-.422.031-.328.021-.657.031-.977.031h-.03c-.319 0-.638-.01-.956-.031-.124 0-.247-.01-.371-.031a9.291 9.291 0 0 1-.894-.083c-.062 0-.134-.01-.195-.02a23.7 23.7 0 0 1-1.152-.185 12.372 12.372 0 0 1-.997-.206 29.481 29.481 0 0 1-5.397-1.82 39.352 39.352 0 0 1-4.719-2.488 38.689 38.689 0 0 1-2.365-1.542c-.391-.278-.781-.555-1.172-.843a51.906 51.906 0 0 1-3.63-2.92c-.328-.298-.657-.596-.986-.905-.329-.298-.658-.606-.977-.904a51.309 51.309 0 0 1-2.345-2.406 42.153 42.153 0 0 1-.895-.987 49.821 49.821 0 0 1-2.385-2.879c-.299-.36-.576-.73-.854-1.1a57.985 57.985 0 0 1-2.951-4.308 82.87 82.87 0 0 1-.729-1.213c-.288-.483-.565-.976-.843-1.47a56.061 56.061 0 0 1-2.797-5.758c-.123-.288-.247-.576-.35-.863-.165-.37-.309-.751-.442-1.121-.205-.545-.4-1.09-.586-1.635-.185-.545-.359-1.1-.534-1.655a40.966 40.966 0 0 1-.463-1.614 31.382 31.382 0 0 1-.452-1.758c-.011-.062-.031-.123-.041-.185a48.874 48.874 0 0 1-1.018-5.881c-.051-.36-.082-.72-.113-1.08-.041-.38-.071-.751-.092-1.131a46.27 46.27 0 0 1-.104-2.087c-.01-.453-.021-.905-.021-1.357l6.684 13.14 11.484 5.007 13.581 1.224 10.076.915h.062l9.428.854 21.005 1.892 11.405-23.031zm-8.915-57.082c-2.046 4.637-4.709 8.945-7.855 12.852-.185.227-.37.453-.565.679a57.633 57.633 0 0 1-24.562 17.324 56.011 56.011 0 0 1-7.855 2.262 60.05 60.05 0 0 1-5.49.895 59.52 59.52 0 0 1-6.528.36c-2.529 0-5.007-.165-7.443-.483a54.308 54.308 0 0 1-7.002-1.336 53.169 53.169 0 0 1-3.846-1.131 55.745 55.745 0 0 1-3.66-1.357v-4.246c0-23.102 18.723-41.834 41.825-41.855h.041c3.188 0 6.292.359 9.273 1.028a41.237 41.237 0 0 1 7.835 2.622 41.526 41.526 0 0 1 9.387 5.809 41.375 41.375 0 0 1 6.445 6.577z" clip-path="url(#db)" fill="#543e36"/><path d="M135.938 52.784v8.235a64.177 64.177 0 0 1-17.314-20.48c-.01-.01-.01-.031-.021-.041a63.771 63.771 0 0 1-7.412-25.92 41.526 41.526 0 0 1 9.387 5.809 41.526 41.526 0 0 1 6.446 6.58 41.665 41.665 0 0 1 8.914 25.817zM57.12 56.013a44.008 44.008 0 0 0-1.244 2.375c-.153.318-.308.658-.462.987-2.025 4.503-3.044 8.924-3.188 12.914 0 .113-.011.236-.011.35V56.517c0-.576.021-1.142.021-1.697a134.6 134.6 0 0 0 4.884 1.193z" clip-path="url(#db)" fill="#543e36"/><path d="M131.054 56.013a45.482 45.482 0 0 1 1.71 3.361c2.088 4.643 3.11 9.178 3.198 13.268v-16.13c0-.567-.021-1.134-.021-1.688-1.623.419-3.244.824-4.887 1.189z" clip-path="url(#db)" fill="#543e36"/><path d="M130.972 60.167a.355.355 0 0 0-.309-.35c-1.48-.226-8.143-1.142-15.309-1.142-8.133 0-18.63 2.55-20.46 2.55H93.27c-.854 0-3.588-.555-7.084-1.141-4.02-.679-9.037-1.409-13.376-1.409-5.243 0-10.22.494-13.088.843-1.049.124-1.82.236-2.221.298a.355.355 0 0 0-.309.35l-.082 4.369c0 .154.093.288.236.35l.493.175c.73.278.669 13.448 4.596 16.738 2.334 1.943 4.411 3.053 13.16 3.053 5.069 0 8.256-1.367 11.279-5.449 2.18-2.93 4.112-9.86 4.112-9.86.586-2.858 2.714-3.084 3.054-3.105h.041c.071 0 2.468.041 3.095 3.105 0 0 1.933 6.93 4.112 9.86 3.022 4.082 6.21 5.449 11.278 5.449 8.75 0 10.826-1.11 13.16-3.053 3.928-3.29 3.866-16.46 4.596-16.738l.494-.175a.38.38 0 0 0 .236-.35l-.08-4.368zM86.875 75.753c-1.285 3.043-4.606 6.971-9.284 7.207-14.034.709-14.682-3.208-15.587-6.313-.915-3.105-1.151-5.83-.792-8.935.37-3.105 1.152-4.925 2.561-5.84.606-.401 1.265-.761 2.951-1.018 1.511-.226 3.845-.36 7.731-.36 2.251 0 4.359.175 6.24.483 4.997.802 8.369 2.499 8.369 4.174 0 1.143-.288 6.098-2.189 10.602zm39.284.894c-.904 3.105-1.552 7.022-15.586 6.313-4.678-.236-7.999-4.164-9.284-7.207-1.902-4.503-2.189-9.459-2.189-10.6 0-2.303 6.395-4.658 14.609-4.658 8.215 0 9.53.617 10.683 1.378 1.408.915 2.189 2.735 2.56 5.84.36 3.105.123 5.83-.793 8.934z" clip-path="url(#db)" fill="#1a1a1a"/><g clip-path="url(#db)" fill="#543e36"><path d="M94.123 90.65l-.011 10.138-.01 3.547v2.786l-.011 9.253v.01l-.01-.01h-.011l-.03-.021-40.436-20.582c-.011-.062-.031-.123-.041-.185a48.874 48.874 0 0 1-1.018-5.881c-.051-.36-.082-.72-.113-1.08-.041-.38-.071-.751-.092-1.131a46.27 46.27 0 0 1-.104-2.087c-.01-.453-.021-.905-.021-1.357V71.764c0 .175.011.35.011.524.082 2.971.555 6.241 1.47 9.582.71 2.57 1.594 4.945 2.622 7.063v.01c2.694 5.604 6.303 9.407 9.623 10.024.206.031.422.051.628.072a36.15 36.15 0 0 0 4.02.226c5.243 0 9.901-4.215 12.831-5.922l.062-.031c.154-.093.309-.185.442-.278.041-.031.082-.051.123-.072 2.468-1.409 6.025-2.303 9.994-2.313h.082z"/><path d="M135.947 71.764l-.01 12.286c0 3.085-.288 6.107-.822 9.038a57.558 57.558 0 0 1-.751 3.485l-9.49 13.705-30.782 6.097h-.01l-.011.01v-.01l-.03-25.727h.082c3.969.01 7.536.905 10.004 2.313a.758.758 0 0 1 .113.072c.144.093.298.185.452.278.01.01.03.021.051.031 2.941 1.707 7.588 5.925 12.832 5.925 1.388 0 2.734-.082 4.019-.226.216-.021.422-.041.638-.072 3.311-.617 6.93-4.421 9.613-10.024v-.01c1.027-2.118 1.912-4.493 2.621-7.063.926-3.393 1.409-6.703 1.471-9.716.01-.135.01-.259.01-.392z"/></g><ellipse cx="94.074" cy="103.955" rx="10.255" ry="3.17" clip-path="url(#db)" fill="#ecc19c"/><g clip-path="url(#db)" fill="#435363"><path d="M64.131 155.174v56.558h-4.369v-53.37a53.699 53.699 0 0 1 1.769-1.378 49.372 49.372 0 0 1 2.6-1.81zm59.89.011v56.547h4.369v-53.36z"/></g><g clip-path="url(#db)"><g fill="#141720"><path d="M82.113 151.713l11.961 14.336 11.962-14.336z"/><path d="M94.074 225.437h-7.073l5.11-65.8c.215.837 3.712.837 3.927 0l5.11 65.8h-7.074z"/></g><g fill="#e7ecf2"><path d="M94.07 151.638l-.03.051-.011.021-4.966 8.338-4.637 7.772-12.554-17.447a20.29 20.29 0 0 0 1.183-.915l.021.021a34.2 34.2 0 0 0 6.621-6.991l14.343 9.13.03.02z"/><path d="M116.278 150.373l-12.554 17.447-4.637-7.772-4.977-8.338-.041-.072 14.436-9.191a34.484 34.484 0 0 0 6.631 7.042c.382.308.761.607 1.142.884z"/></g></g></svg><svg id="star" data-name="Layer 1" width="66" height="66" viewBox="-1 -1 66 66" x="66" y="127.53" xmlns="http://www.w3.org/2000/svg"><defs><style>.ecls-1{fill:#d4953f}</style></defs><title>star</title><path class="ecls-1" d="M32 0l-8 24H0l20 16-8 24 20-16 20 16-8-24 20-16H40z"/></svg><svg width="144.4" height="61.53" viewBox="-1 -1 60 60" id="suitcase" xmlns="http://www.w3.org/2000/svg"><path d="M38.245 34H34v-6H24v6h-4.245C11.005 34 3.596 28.306 1 20.425v29.959a3.39 3.39 0 0 0 2.567 3.288l9.43 2.358a65.972 65.972 0 0 0 32.005 0l9.43-2.358A3.387 3.387 0 0 0 57 50.385v-29.96C54.404 28.306 46.995 34 38.245 34z" fill="#948677"/><path d="M36 5.444V8h4V5.889A5.888 5.888 0 0 0 34.111 0H23.889A5.888 5.888 0 0 0 18 5.889V8h4V5.444A1.562 1.562 0 0 1 24.159 4a12.677 12.677 0 0 0 9.682 0A1.562 1.562 0 0 1 36 5.444z" fill="#977956"/><path d="M0 11v3.245C0 25.156 8.845 34 19.755 34h18.49C49.156 34 58 25.156 58 14.245V11H0z" fill="#8d5538"/><path fill="#ffd16c" d="M16 8h8v3h-8zm18 0h8v3h-8z"/><path d="M16.616 30.687a.988.988 0 0 1-.201-.021c-.34-.069-.676-.148-1.008-.237a1 1 0 0 1 .52-1.932c.293.079.588.148.889.21a1 1 0 0 1-.2 1.98zm-4.546-1.688a.988.988 0 0 1-.487-.128 16.208 16.208 0 0 1-.889-.534.999.999 0 1 1 1.084-1.68c.255.164.516.32.781.47a.999.999 0 0 1-.489 1.872zM8.251 26.01a.998.998 0 0 1-.729-.315 18.668 18.668 0 0 1-.686-.777 1 1 0 1 1 1.541-1.275c.193.234.395.462.604.684a1.001 1.001 0 0 1-.045 1.414c-.194.179-.44.269-.685.269zm-2.737-4.001a1 1 0 0 1-.902-.567 17.073 17.073 0 0 1-.419-.949 1 1 0 0 1 1.854-.75c.114.282.236.56.368.834a1 1 0 0 1-.901 1.432zm-1.39-4.646a1 1 0 0 1-.989-.861 14.805 14.805 0 0 1-.108-1.035.999.999 0 0 1 .925-1.069.997.997 0 0 1 1.069.925c.022.303.053.604.095.902a1 1 0 0 1-.992 1.138zM21 31h-.5a1 1 0 1 1 0-2h.5a1 1 0 1 1 0 2zm16.5 0H37a1 1 0 1 1 0-2h.5a1 1 0 1 1 0 2zm3.876-.312a1.001 1.001 0 0 1-.197-1.981c.298-.06.593-.129.883-.208a1 1 0 0 1 .526 1.93c-.333.091-.671.17-1.012.239a.99.99 0 0 1-.2.02zm4.548-1.686a.997.997 0 0 1-.873-.512.997.997 0 0 1 .384-1.36c.266-.149.527-.307.783-.471a1 1 0 1 1 1.082 1.682c-.291.188-.586.364-.889.533a.988.988 0 0 1-.487.128zm3.819-2.987a1.002 1.002 0 0 1-.73-1.685c.208-.222.41-.45.605-.685a1 1 0 0 1 1.537 1.279c-.221.266-.448.523-.684.774a.993.993 0 0 1-.728.317zm2.739-3.998a1.001 1.001 0 0 1-.902-1.432c.131-.273.254-.552.368-.834a1 1 0 0 1 1.854.752c-.13.319-.269.635-.417.945a1 1 0 0 1-.903.569zm1.393-4.645a1 1 0 0 1-.992-1.134c.04-.299.072-.602.095-.906a1.01 1.01 0 0 1 1.069-.925 1 1 0 0 1 .925 1.069 16.59 16.59 0 0 1-.106 1.029 1.001 1.001 0 0 1-.991.867z" fill="#72422d"/><path fill="#ffd16c" d="M24 16h10v4H24z"/><path d="M28 34v23.985c.667.01 1.333.01 2 0V34h-2zm25 19.03a1 1 0 0 1-1-1v-1a1 1 0 1 1 2 0v1a1 1 0 0 1-1 1zm0-5a1 1 0 0 1-1-1v-1a1 1 0 1 1 2 0v1a1 1 0 0 1-1 1zm0-5a1 1 0 0 1-1-1v-1a1 1 0 1 1 2 0v1a1 1 0 0 1-1 1zm0-5a1 1 0 0 1-1-1v-1a1 1 0 1 1 2 0v1a1 1 0 0 1-1 1zm0-5a1 1 0 0 1-1-1v-1a1 1 0 1 1 2 0v1a1 1 0 0 1-1 1zM5 52.35a1 1 0 0 1-1-1v-1a1 1 0 1 1 2 0v1a1 1 0 0 1-1 1zm0-5a1 1 0 0 1-1-1v-1a1 1 0 1 1 2 0v1a1 1 0 0 1-1 1zm0-5a1 1 0 0 1-1-1v-1a1 1 0 1 1 2 0v1a1 1 0 0 1-1 1zm0-5a1 1 0 0 1-1-1v-1a1 1 0 1 1 2 0v1a1 1 0 0 1-1 1zm0-5a1 1 0 0 1-1-1v-1a1 1 0 1 1 2 0v1a1 1 0 0 1-1 1z" fill="#7a6d61"/><path fill="#b19046" d="M25.958 30h6v7.583h-6z"/><path d="M24 28v11h10V28H24zm7 5.432a.568.568 0 0 1-.568.568H30v2a1 1 0 1 1-2 0v-2h-.432a.568.568 0 0 1-.568-.568v-1.864c0-.314.254-.568.568-.568h2.864c.314 0 .568.254.568.568v1.864z" fill="#e4c05c"/></svg><svg width="62" height="66" viewBox="-1 -1 412.16 412.16" id="twitter" x="132" y="127.53" xmlns="http://www.w3.org/2000/svg"><path d="M403.632 74.18a162.414 162.414 0 0 1-28.28 9.537 88.177 88.177 0 0 0 23.275-37.067c1.295-4.051-3.105-7.554-6.763-5.385a163.188 163.188 0 0 1-43.235 17.862 11.02 11.02 0 0 1-2.702.336c-2.766 0-5.455-1.027-7.57-2.891-16.156-14.239-36.935-22.081-58.508-22.081-9.335 0-18.76 1.455-28.014 4.325-28.672 8.893-50.795 32.544-57.736 61.724-2.604 10.945-3.309 21.9-2.097 32.56a3.166 3.166 0 0 1-.797 2.481 3.278 3.278 0 0 1-2.753 1.091c-62.762-5.831-119.358-36.068-159.363-85.14-2.04-2.503-5.952-2.196-7.578.593-7.834 13.44-11.974 28.812-11.974 44.454 0 23.972 9.631 46.563 26.36 63.032a79.24 79.24 0 0 1-20.169-7.808c-3.06-1.7-6.825.485-6.868 3.985-.438 35.612 20.412 67.3 51.646 81.569a79.567 79.567 0 0 1-16.786-1.399c-3.446-.658-6.341 2.611-5.271 5.952 10.138 31.651 37.39 54.981 70.002 60.278-27.066 18.169-58.585 27.753-91.39 27.753l-10.227-.006c-3.151 0-5.816 2.054-6.619 5.106-.791 3.006.666 6.177 3.353 7.74 36.966 21.513 79.131 32.883 121.955 32.883 37.485 0 72.549-7.439 104.219-22.109 29.033-13.449 54.689-32.674 76.255-57.141 20.09-22.792 35.8-49.103 46.692-78.201 10.383-27.737 15.871-57.333 15.871-85.589v-1.346c-.001-4.537 2.051-8.806 5.631-11.712a174.776 174.776 0 0 0 35.16-38.591c2.573-3.849-1.485-8.673-5.719-6.795z" fill="#76a9ea"/></svg></svg>