<?xml version="1.0" encoding="iso-8859-1"?><!DOCTYPE svg PUBLIC "-//W3C//DTD SVG 1.1//EN" "http://www.w3.org/Graphics/SVG/1.1/DTD/svg11.dtd"><svg width="271" height="172" viewBox="0 0 271 172" xmlns="http://www.w3.org/2000/svg" xmlns:xlink="http://www.w3.org/1999/xlink"><svg viewBox="0 0 512 512" width="64" height="64" id="bars" x="142.4" xmlns="http://www.w3.org/2000/svg"><path d="M512 256c0 47.966-13.191 92.856-36.152 131.228a257.177 257.177 0 0 1-78.855 82.463 255.305 255.305 0 0 1-41.426 22.217c-24.56 10.381-51.086 17.032-78.855 19.253-6.828.555-13.746.833-20.719.833-6.973 0-13.879-.278-20.707-.822-27.769-2.232-54.294-8.883-78.855-19.264a254.75 254.75 0 0 1-41.415-22.206 257.142 257.142 0 0 1-78.855-82.452C13.202 348.867 0 303.977 0 256 0 114.612 114.618.006 255.994.006 397.382.006 512 114.612 512 256z" fill="#a35895"/><path d="M300.892 160.558h79.301v-30.497h-48.804V96.24h-30.497v33.822h-3.963c-24.766 0-44.842 20.077-44.842 44.842 0 24.766 20.077 44.842 44.842 44.842h38.42c7.923 0 14.345 6.423 14.345 14.345 0 7.923-6.423 14.345-14.345 14.345H252.085v30.497h48.805v33.822h30.497v-33.822h3.962c24.766 0 44.842-20.077 44.842-44.842v-.001c0-24.766-20.077-44.842-44.842-44.842h-38.42c-7.923 0-14.345-6.423-14.345-14.345 0-7.923 6.423-14.345 14.345-14.345h3.963z" fill="#f0a037"/><path d="M115.018 254.079v215.623a257.142 257.142 0 0 1-78.855-82.452V254.079h78.855z" fill="#e6e6e6"/><path d="M235.287 119.731v391.442c-27.769-2.232-54.294-8.883-78.855-19.264V119.731h78.855z" fill="#53b8d3"/><path d="M355.568 382.876v109.033c-24.56 10.381-51.086 17.032-78.855 19.253V382.876h78.855z" fill="#55c6a1"/><path d="M475.848 10.92v376.308a257.177 257.177 0 0 1-78.855 82.463V10.92h78.855z" fill="#42577f"/></svg><svg width="64" height="64" viewBox="0 0 512 512" id="book" x="206.4" xmlns="http://www.w3.org/2000/svg"><circle cx="256" cy="256" r="256" fill="#4ab8a1"/><path d="M503.9 320.14L432 140c0-4.4-3.6-8-8-8h-4v-1.852c-1.296-.26-2.628-.536-4-.828V124c-20-4-47.816-12-92-12s-64 8-68 12c-.292-.296-.704-.616-1.172-.948-.124-.088-.272-.18-.416-.272a21.15 21.15 0 0 0-1.396-.832c-.156-.084-.3-.168-.472-.256-2.252-1.18-5.484-2.464-9.764-3.708a.646.646 0 0 1-.056-.012c-4.416-1.28-9.984-2.5-16.796-3.508C216.04 113 203.564 112 188 112c-44.184 0-72 8-92 12v8h-8c-4.4 0-8 3.6-8 8v236l39.116 96.28C158.72 497.4 205.636 512 256 512c119.244 0 219.428-81.516 247.9-191.86z" fill="#43a691"/><path d="M424 132H88c-4.4 0-8 3.6-8 8v232c0 4.4 3.6 8 8 8h140c0 8.836 12.54 16 28 16s28-7.164 28-16h140c4.4 0 8-3.6 8-8V140c0-4.4-3.6-8-8-8z" fill="#cc584c"/><path fill="#bf5347" d="M264 132h160v236H264z"/><path d="M424 372H284c0 8.836-12.54 16-28 16s-28-7.164-28-16H88c-4.4 0-8-3.6-8-8v8c0 4.4 3.6 8 8 8h140c0 8.836 12.54 16 28 16s28-7.164 28-16h140c4.4 0 8-3.6 8-8v-8c0 4.4-3.6 8-8 8z" fill="#994239"/><path d="M188 112c-44.184 0-72 8-92 12v240h160V124c-4-4-23.816-12-68-12z" fill="#fff8e6"/><path d="M256 364c0-11.044-23.816-20-68-20s-84 12-92 20h160z" fill="#e6dbc3"/><path d="M324 112c44.184 0 72 8 92 12v240H256V124c4-4 23.816-12 68-12z" fill="#fff8e6"/><path d="M256 364c0-11.044 23.816-20 68-20s84 12 92 20H256z" fill="#e6dbc3"/><path d="M256 340V124c-2.584-2.592-11.884-6.852-30.072-9.536L256 340z" fill="#f2e7ce"/><path fill="#bf5347" d="M100 364h164v4H100z"/><g fill="#f2e7ce"><path d="M400 164H272v-28c46.728-7.228 81.272-7.232 128 0v28zM292 184h108v8H292zM272 200h128v8H272zM272 216h128v8H272zM272 232h128v8H272zM272 248h128v8H272zM272 264h128v8H272zM272 280h128v8H272zM272 296h128v8H272zM272 312h108v8H272zM136 140h108v8H136zM116 156h128v8H116zM116 172h128v8H116zM116 188h128v8H116zM116 204h128v8H116zM116 220h128v8H116zM116 236h128v8H116zM116 252h128v8H116zM116 268h108v8H116z"/></g></svg><svg id="clear-view-escapes" data-name="Layer 1" width="142.4" height="59.53" viewBox="0 0 142.4 59.53" xmlns="http://www.w3.org/2000/svg"><defs><style>.ccls-1{fill:#fff}</style></defs><title>clear-view-escapes</title><path class="ccls-1" d="M19.5 27.52v4.75H5.93v5.51h12.45v4.39H5.93v6.3h13.85v4.75H.28v-25.7H19.5zM27.36 48.59a3 3 0 0 0 .88 1 3.78 3.78 0 0 0 1.24.56 5.84 5.84 0 0 0 1.46.18 5.46 5.46 0 0 0 1.13-.13 3.86 3.86 0 0 0 1.08-.4 2.47 2.47 0 0 0 .85-.75 1.89 1.89 0 0 0 .32-1.13 1.91 1.91 0 0 0-1.53-1.73 30.59 30.59 0 0 0-4.3-1.19q-1.12-.25-2.18-.59a7.38 7.38 0 0 1-1.89-.9 4.35 4.35 0 0 1-1.33-1.4 4 4 0 0 1-.5-2.07 5.6 5.6 0 0 1 .7-3 5.16 5.16 0 0 1 1.85-1.82 8.13 8.13 0 0 1 2.59-.94 15.92 15.92 0 0 1 3-.27 14.79 14.79 0 0 1 2.93.29 7.77 7.77 0 0 1 2.54 1 5.83 5.83 0 0 1 1.8 1.88 6.11 6.11 0 0 1 .89 2.82H34a2.24 2.24 0 0 0-1.12-2 5.1 5.1 0 0 0-2.37-.52 8.77 8.77 0 0 0-.94.05 3.15 3.15 0 0 0-.92.23 1.91 1.91 0 0 0-.7.52 1.38 1.38 0 0 0-.29.92 1.4 1.4 0 0 0 .5 1.12 3.88 3.88 0 0 0 1.31.7 16.38 16.38 0 0 0 1.85.49l2.18.49a21.57 21.57 0 0 1 2.18.61 7.2 7.2 0 0 1 1.89 1 4.63 4.63 0 0 1 1.33 1.48 4.34 4.34 0 0 1 .5 2.18 5.65 5.65 0 0 1-2.66 5.07A7.9 7.9 0 0 1 34 53.37a15.9 15.9 0 0 1-3.11.31 15.36 15.36 0 0 1-3.17-.32A8.35 8.35 0 0 1 25 52.27a6.17 6.17 0 0 1-2-2 6.25 6.25 0 0 1-.85-3.11H27a2.8 2.8 0 0 0 .36 1.43zM51.27 38a3.59 3.59 0 0 0-2.05.56A4.45 4.45 0 0 0 47.87 40a6.23 6.23 0 0 0-.74 1.94 10.54 10.54 0 0 0-.21 2.06 10.11 10.11 0 0 0 .21 2 6.32 6.32 0 0 0 .7 1.89 4 4 0 0 0 1.31 1.39 3.61 3.61 0 0 0 2 .54 3.75 3.75 0 0 0 2.83-1 4.86 4.86 0 0 0 1.24-2.75h4.93a8.43 8.43 0 0 1-2.88 5.65 9.29 9.29 0 0 1-6.08 1.94 10.16 10.16 0 0 1-3.83-.7 8.49 8.49 0 0 1-3-2 8.92 8.92 0 0 1-1.91-3 10.42 10.42 0 0 1-.68-3.83 12.4 12.4 0 0 1 .63-4 9 9 0 0 1 1.9-3.13 8.49 8.49 0 0 1 3-2.1 10.15 10.15 0 0 1 4-.76 11.63 11.63 0 0 1 3.19.43 8.49 8.49 0 0 1 2.73 1.31 6.79 6.79 0 0 1 2.83 5.31h-5A3.43 3.43 0 0 0 51.27 38zM62.82 40.33a5.93 5.93 0 0 1 .9-3 6.13 6.13 0 0 1 2-1.91 8.83 8.83 0 0 1 2.75-1 15.71 15.71 0 0 1 3.08-.31 20.85 20.85 0 0 1 2.84.2 8.72 8.72 0 0 1 2.63.77A5.18 5.18 0 0 1 79 36.67a4.47 4.47 0 0 1 .76 2.72v9.68a19.49 19.49 0 0 0 .14 2.41 4.34 4.34 0 0 0 .5 1.73h-5.19a6.77 6.77 0 0 1-.21-.88 7.44 7.44 0 0 1-.13-.92A6.64 6.64 0 0 1 72 53.17a11.55 11.55 0 0 1-3.38.5 9.1 9.1 0 0 1-2.48-.32 5.68 5.68 0 0 1-2-1 4.69 4.69 0 0 1-1.35-1.73 5.84 5.84 0 0 1-.49-2.48 5.42 5.42 0 0 1 .56-2.61 4.66 4.66 0 0 1 1.44-1.64 6.44 6.44 0 0 1 2-.92 21.75 21.75 0 0 1 2.29-.49q1.15-.18 2.27-.29a13.74 13.74 0 0 0 2-.32 3.43 3.43 0 0 0 1.37-.63 1.38 1.38 0 0 0 .4-1.24 2.72 2.72 0 0 0-.27-1.31 2 2 0 0 0-.72-.69 2.86 2.86 0 0 0-1-.36 8.61 8.61 0 0 0-1.28-.09 3.88 3.88 0 0 0-2.37.65 2.89 2.89 0 0 0-1 2.16h-5.17zm11.8 3.78a2.28 2.28 0 0 1-.81.45 8.28 8.28 0 0 1-1 .27c-.41.07-.81.17-1.2.17s-.82.11-1.22.18a9.24 9.24 0 0 0-1.13.29 3.34 3.34 0 0 0-1 .49 2.3 2.3 0 0 0-.67.77 2.49 2.49 0 0 0-.25 1.19 2.4 2.4 0 0 0 .25 1.15 1.93 1.93 0 0 0 .68.74 2.9 2.9 0 0 0 1 .38 6.48 6.48 0 0 0 1.19.11 4.51 4.51 0 0 0 2.34-.5 3.36 3.36 0 0 0 1.22-1.21 3.87 3.87 0 0 0 .49-1.42 10.06 10.06 0 0 0 .12-1.17v-1.89zM88.56 34.6V37h.07A5.62 5.62 0 0 1 91 34.78a7.29 7.29 0 0 1 3.17-.68 8.07 8.07 0 0 1 3.78.83 7.82 7.82 0 0 1 2.63 2.2 9.31 9.31 0 0 1 1.55 3.19 14.19 14.19 0 0 1 .5 3.8 12.82 12.82 0 0 1-.5 3.6 9.18 9.18 0 0 1-1.53 3.06 7.58 7.58 0 0 1-2.6 2.11 7.69 7.69 0 0 1-3.58.79 7.23 7.23 0 0 1-3.18-.7 6 6 0 0 1-2.39-2.07h-.04v8.82H83.7V34.6h4.86zm6.64 14.76A4.09 4.09 0 0 0 96.56 48a5.43 5.43 0 0 0 .74-1.89 11.19 11.19 0 0 0 .22-2.2 10.32 10.32 0 0 0-.23-2.2 5.86 5.86 0 0 0-.77-1.92 4.33 4.33 0 0 0-1.39-1.37 3.87 3.87 0 0 0-2.08-.42 3.94 3.94 0 0 0-2.11.52 4.22 4.22 0 0 0-1.37 1.35 5.6 5.6 0 0 0-.74 1.91 11.3 11.3 0 0 0-.2 2.22 10.31 10.31 0 0 0 .23 2.2 5.69 5.69 0 0 0 .76 1.8 4.36 4.36 0 0 0 5.58 1.36zM111.15 48.75a5.24 5.24 0 0 0 6 .34 3.21 3.21 0 0 0 1.37-1.64H123a8.54 8.54 0 0 1-3.31 4.79 9.75 9.75 0 0 1-5.4 1.44 10.6 10.6 0 0 1-4-.7 8.22 8.22 0 0 1-3-2 9 9 0 0 1-1.89-3.09 11.34 11.34 0 0 1-.67-4 10.84 10.84 0 0 1 .68-3.89 9 9 0 0 1 4.95-5.18 9.63 9.63 0 0 1 3.87-.76 8.84 8.84 0 0 1 4.14.92 8.26 8.26 0 0 1 2.9 2.46A10.14 10.14 0 0 1 123 41a13.14 13.14 0 0 1 .36 4.14H109.9a5.16 5.16 0 0 0 1.25 3.61zm5.78-9.75a3.59 3.59 0 0 0-2.79-1 4.45 4.45 0 0 0-2 .41 3.89 3.89 0 0 0-1.3 1 3.77 3.77 0 0 0-.68 1.3 5.83 5.83 0 0 0-.23 1.22h8.31a5.91 5.91 0 0 0-1.31-2.93zM130.64 48.59a3 3 0 0 0 .88 1 3.78 3.78 0 0 0 1.24.56 5.83 5.83 0 0 0 1.46.18 5.46 5.46 0 0 0 1.13-.13 3.86 3.86 0 0 0 1.08-.4 2.47 2.47 0 0 0 .81-.72 1.89 1.89 0 0 0 .32-1.13 1.91 1.91 0 0 0-1.56-1.76 30.55 30.55 0 0 0-4.22-1.19q-1.11-.25-2.18-.59a7.39 7.39 0 0 1-1.89-.9 4.36 4.36 0 0 1-1.33-1.4 4 4 0 0 1-.5-2.07 5.6 5.6 0 0 1 .7-3 5.18 5.18 0 0 1 1.85-1.82 8.13 8.13 0 0 1 2.59-.94 15.91 15.91 0 0 1 3-.27 14.79 14.79 0 0 1 2.93.29 7.77 7.77 0 0 1 2.54 1 5.84 5.84 0 0 1 1.85 1.82 6.11 6.11 0 0 1 .88 2.86h-4.86a2.24 2.24 0 0 0-1.12-2 5.1 5.1 0 0 0-2.37-.52 8.77 8.77 0 0 0-.94.05 3.15 3.15 0 0 0-.92.23 1.9 1.9 0 0 0-.7.52 1.38 1.38 0 0 0-.29.92 1.4 1.4 0 0 0 .5 1.12 3.87 3.87 0 0 0 1.31.7 16.33 16.33 0 0 0 1.85.49l2.1.51a21.57 21.57 0 0 1 2.18.61 7.18 7.18 0 0 1 1.89 1 4.63 4.63 0 0 1 1.33 1.48 4.33 4.33 0 0 1 .5 2.18 5.65 5.65 0 0 1-2.68 5.04 7.89 7.89 0 0 1-2.72 1.06 15.9 15.9 0 0 1-3.11.31 15.35 15.35 0 0 1-3.17-.32 8.35 8.35 0 0 1-2.75-1.08 6.18 6.18 0 0 1-2-2 6.25 6.25 0 0 1-.85-3.11h4.86a2.8 2.8 0 0 0 .38 1.42zM23.64 6.29a6.36 6.36 0 0 0-.55-1.43 4 4 0 0 0-.9-1.12A4 4 0 0 0 20.9 3a5.11 5.11 0 0 0-1.71-.26 5 5 0 0 0-2.46.58A4.84 4.84 0 0 0 15 4.85a6.93 6.93 0 0 0-1 2.19 10.16 10.16 0 0 0 0 5 6.92 6.92 0 0 0 1 2.19 4.83 4.83 0 0 0 1.69 1.54 5 5 0 0 0 2.46.57A4.44 4.44 0 0 0 21 16a4.12 4.12 0 0 0 1.38-1 4.71 4.71 0 0 0 .9-1.49 7.13 7.13 0 0 0 .43-1.83h3.05a8.48 8.48 0 0 1-.69 2.93 7.17 7.17 0 0 1-1.59 2.29 7 7 0 0 1-2.35 1.49 8.14 8.14 0 0 1-3 .53 8.43 8.43 0 0 1-3.59-.74 7.88 7.88 0 0 1-2.69-2 9 9 0 0 1-1.69-3 11 11 0 0 1-.59-3.63 11 11 0 0 1 .59-3.6 9 9 0 0 1 1.69-3 8 8 0 0 1 2.69-2 8.29 8.29 0 0 1 3.65-.76A9.46 9.46 0 0 1 22 .6a7.31 7.31 0 0 1 2.34 1.2A6.23 6.23 0 0 1 26 3.72a6.66 6.66 0 0 1 .78 2.58h-3.14zM29.31.62h2.85v17.85h-2.85V.62zM37.49 12.74a5 5 0 0 0 .21 1.45 3.57 3.57 0 0 0 .64 1.23 3.06 3.06 0 0 0 1.08.84 3.54 3.54 0 0 0 1.55.31A3.42 3.42 0 0 0 43 16a3.17 3.17 0 0 0 1.14-1.61h2.7a5.36 5.36 0 0 1-2.1 3.26 5.71 5.71 0 0 1-1.74.85 7 7 0 0 1-2 .29 6.85 6.85 0 0 1-2.7-.5 5.58 5.58 0 0 1-2-1.4 5.93 5.93 0 0 1-1.3-2.12 8.74 8.74 0 0 1-.36-2.77 7.79 7.79 0 0 1 .44-2.61 6.68 6.68 0 0 1 1.25-2.18 5.86 5.86 0 0 1 4.56-2 5.8 5.8 0 0 1 2.74.64 6 6 0 0 1 2 1.69 6.84 6.84 0 0 1 1.17 2.39 7.42 7.42 0 0 1 .2 2.81h-9.5zm6.65-1.88a4.61 4.61 0 0 0-.29-1.3 3.47 3.47 0 0 0-.65-1.09 3.23 3.23 0 0 0-1-.75 3 3 0 0 0-1.31-.29 3.42 3.42 0 0 0-1.36.26 3.11 3.11 0 0 0-1.05.73 3.59 3.59 0 0 0-.7 1.09 3.78 3.78 0 0 0-.29 1.35h6.65zM60 15.59a1.51 1.51 0 0 0 .14.75.58.58 0 0 0 .54.23H61a1.85 1.85 0 0 0 .4 0v2l-.4.04-.49.11-.5.08h-.43a2.75 2.75 0 0 1-1.45-.35 1.74 1.74 0 0 1-.75-1.23 5 5 0 0 1-2.09 1.2 8.22 8.22 0 0 1-2.39.38 5.86 5.86 0 0 1-1.68-.24 4.38 4.38 0 0 1-1.41-.7 3.35 3.35 0 0 1-1-1.18 3.62 3.62 0 0 1-.35-1.68 3.84 3.84 0 0 1 .44-2 3.24 3.24 0 0 1 1.15-1.18 5.21 5.21 0 0 1 1.6-.61q.89-.19 1.79-.29a14.67 14.67 0 0 1 1.48-.21 6.86 6.86 0 0 0 1.24-.21 1.9 1.9 0 0 0 .84-.37 1.27 1.27 0 0 0 .31-.94 1.46 1.46 0 0 0-.26-.9 1.77 1.77 0 0 0-.65-.54 2.82 2.82 0 0 0-.86-.25 6.94 6.94 0 0 0-.9-.06 3.58 3.58 0 0 0-2 .5 2 2 0 0 0-.87 1.55h-2.83a4.29 4.29 0 0 1 .6-2.08 4.14 4.14 0 0 1 1.34-1.33 5.48 5.48 0 0 1 1.84-.7 10.94 10.94 0 0 1 2.1-.2 8.85 8.85 0 0 1 1.88.2 5.34 5.34 0 0 1 1.65.62 3.61 3.61 0 0 1 1.19 1.16A3.19 3.19 0 0 1 60 8.94v6.65zM57.14 12a3.45 3.45 0 0 1-1.6.51q-1 .09-1.9.26a6.12 6.12 0 0 0-.87.21 2.63 2.63 0 0 0-.75.38 1.65 1.65 0 0 0-.51.63 2.14 2.14 0 0 0-.19.94 1.19 1.19 0 0 0 .27.8 2 2 0 0 0 .66.51 3.08 3.08 0 0 0 .85.26 5.3 5.3 0 0 0 .84.07 4.6 4.6 0 0 0 1-.12A3.4 3.4 0 0 0 56 16a2.73 2.73 0 0 0 .81-.76 1.93 1.93 0 0 0 .33-1.14V12zM63.06 5.54h2.68V8h.05a2.88 2.88 0 0 1 .49-1 4.73 4.73 0 0 1 .88-.91 4.4 4.4 0 0 1 1.14-.66 3.41 3.41 0 0 1 1.28-.25 6.21 6.21 0 0 1 .69 0h.39V8L70 7.93a5.06 5.06 0 0 0-.61 0 3.28 3.28 0 0 0-1.36.29 3.13 3.13 0 0 0-1.09.78 4.16 4.16 0 0 0-.75 1.39 6 6 0 0 0-.27 1.9v6.15h-2.86V5.54zM77.19.62h3.25l4.48 14.13H85L89.54.62h3.17l-6.1 17.85h-3.47zM94.42.62h2.85v2.7h-2.85V.62zm0 4.93h2.85v12.92h-2.85V5.54zM102.59 12.74a5 5 0 0 0 .21 1.45 3.57 3.57 0 0 0 .64 1.23 3.06 3.06 0 0 0 1.08.84 3.54 3.54 0 0 0 1.55.31 3.42 3.42 0 0 0 2-.54 3.18 3.18 0 0 0 1.14-1.61h2.7a5.36 5.36 0 0 1-2.1 3.26 5.71 5.71 0 0 1-1.74.85 7 7 0 0 1-2 .29 6.85 6.85 0 0 1-2.7-.5 5.58 5.58 0 0 1-2-1.4 5.93 5.93 0 0 1-1.22-2.15 8.73 8.73 0 0 1-.41-2.77 7.77 7.77 0 0 1 .44-2.61 6.69 6.69 0 0 1 1.25-2.18 5.86 5.86 0 0 1 4.56-2 5.79 5.79 0 0 1 2.74.64 6 6 0 0 1 2 1.69 6.85 6.85 0 0 1 1.16 2.41 7.42 7.42 0 0 1 .19 2.81h-9.5zm6.65-1.88a4.6 4.6 0 0 0-.29-1.3 3.48 3.48 0 0 0-.65-1.09 3.22 3.22 0 0 0-1-.75 3 3 0 0 0-1.3-.28 3.43 3.43 0 0 0-1.36.26 3.12 3.12 0 0 0-1 .73 3.6 3.6 0 0 0-.7 1.09 3.8 3.8 0 0 0-.29 1.35h6.65zM113.1 5.54h3l2.53 9.65 2.42-9.65H124l2.33 9.65L129 5.54h2.9l-4 12.93h-2.93l-2.4-9.6-2.37 9.6h-3z" transform="translate(-.28 -.19)"/></svg><svg id="comment" data-name="Layer 1" width="64" height="64" viewBox="0 0 64 64" y="107.53" xmlns="http://www.w3.org/2000/svg"><defs><style>.dcls-1{fill:#2f5572}</style></defs><title>comment</title><path class="dcls-1" d="M.72.08A.67.67 0 0 0 0 .8v46.48a.72.72 0 0 0 .72.72H48l16 16V.72a.67.67 0 0 0-.72-.72H.8z"/></svg><svg id="facebook" data-name="Layer 1" width="21.23" height="42.01" viewBox="0 0 21.23 42.01" x="184.41" y="64" xmlns="http://www.w3.org/2000/svg"><defs><style>.ecls-1{fill:#fff}</style></defs><title>facebook</title><path class="ecls-1" d="M21.23.31V7H17.4a3.55 3.55 0 0 0-2.85.91 4.26 4.26 0 0 0-.74 2.72v4.77H21l-1 7.47h-6.19V42H6.27V22.85H0v-7.47h6.27V9.85q0-4.69 2.55-7.28A9 9 0 0 1 15.63 0a39.57 39.57 0 0 1 5.6.31z"/></svg><svg id="instagram" data-name="Layer 1" width="42.01" height="42.01" viewBox="0 0 42.01 42.01" x="142.4" y="64" xmlns="http://www.w3.org/2000/svg"><defs><style>.fcls-1{fill:#fff}</style></defs><title>instagram</title><path class="fcls-1" d="M37.25 35.49V17.77h-3.69a11.77 11.77 0 0 1 .57 3.58 12.12 12.12 0 0 1-1.75 6.36 12.76 12.76 0 0 1-4.76 4.59 13.13 13.13 0 0 1-6.56 1.7 12.78 12.78 0 0 1-9.19-3.71 12 12 0 0 1-3.83-9 11.77 11.77 0 0 1 .49-3.56H4.68v17.76a1.63 1.63 0 0 0 1.6 1.67h29.3a1.63 1.63 0 0 0 1.17-.47 1.59 1.59 0 0 0 .5-1.2zm-7.77-14.57A7.75 7.75 0 0 0 27 15.14a8.28 8.28 0 0 0-6-2.4 8.25 8.25 0 0 0-5.91 2.39 7.75 7.75 0 0 0-2.47 5.78 7.75 7.75 0 0 0 2.47 5.79A8.25 8.25 0 0 0 21 29.1a8.28 8.28 0 0 0 6-2.4 7.75 7.75 0 0 0 2.48-5.78zm7.76-9.84V6.56a1.84 1.84 0 0 0-.54-1.31 1.8 1.8 0 0 0-1.31-.56h-4.78a1.8 1.8 0 0 0-1.31.56 1.84 1.84 0 0 0-.54 1.31v4.52A1.87 1.87 0 0 0 30.6 13h4.8a1.87 1.87 0 0 0 1.85-1.89zM42 5.39v31.23A5.41 5.41 0 0 1 36.62 42H5.39a5.19 5.19 0 0 1-3.8-1.59A5.19 5.19 0 0 1 0 36.62V5.39a5.19 5.19 0 0 1 1.59-3.8A5.19 5.19 0 0 1 5.39 0h31.23a5.19 5.19 0 0 1 3.8 1.59A5.19 5.19 0 0 1 42 5.39z"/></svg><svg id="mail" data-name="Layer 1" width="64" height="48" viewBox="0 0 64 48" y="59.53" xmlns="http://www.w3.org/2000/svg"><defs><style>.gcls-1{fill:#2f5572}</style></defs><title>mail</title><path class="gcls-1" d="M0 0v8l32 16L64 8V0H0zm0 16v32h64V16L32 32z"/></svg><svg width="64" height="64" viewBox="0 0 188.148 188.148" id="man" x="206.4" y="64" xmlns="http://www.w3.org/2000/svg"><defs><circle id="ha" cx="94.074" cy="94.074" r="94.074"/></defs><use xlink:href="#ha" overflow="visible" fill="#eb6d4a"/><clipPath id="hb"><use xlink:href="#ha" overflow="visible"/></clipPath><path d="M135.938 52.784V84.05c0 .453-.011.905-.021 1.357-.02.936-.072 1.871-.154 2.796-.02.319-.052.637-.093.956a49.422 49.422 0 0 1-.555 3.928c-.083.432-.165.853-.258 1.275-.01.092-.03.175-.051.257-.083.432-.186.854-.288 1.275-.041.226-.103.452-.154.679-.052.195-.103.391-.164.586a49.465 49.465 0 0 1-.721 2.488c-.123.391-.246.771-.38 1.162-.011.041-.031.082-.041.123l-.37 1.048c-.041.103-.082.205-.124.319-.123.329-.246.658-.38.987-.154.401-.318.792-.483 1.183-.144.35-.298.699-.452 1.049-.02.062-.052.113-.072.174-.175.37-.339.741-.514 1.1-.175.38-.36.761-.556 1.142a57.62 57.62 0 0 1-1.172 2.231l-.556.987a60.434 60.434 0 0 1-5.253 7.649c-.258.339-.524.668-.802.987-.381.462-.772.915-1.162 1.357-.35.391-.699.781-1.059 1.162a55.735 55.735 0 0 1-3.023 3.013c-.205.206-.422.391-.638.586a27.8 27.8 0 0 1-1.059.925c-.277.247-.565.483-.854.72-.74.606-1.48 1.192-2.23 1.737-.309.237-.628.463-.946.679-.514.37-1.038.72-1.563 1.059-.288.195-.586.38-.885.555a37.177 37.177 0 0 1-3.156 1.758 31.03 31.03 0 0 1-2.591 1.182 3.199 3.199 0 0 1-.401.154c-.4.165-.812.319-1.213.452a21.9 21.9 0 0 1-1.521.483c-.35.103-.709.195-1.059.277a.142.142 0 0 1-.072.021c-.35.082-.699.165-1.049.226a2.446 2.446 0 0 1-.277.051c-.288.051-.576.103-.864.134-.411.062-.822.113-1.233.134-.143.02-.277.031-.422.031-.328.021-.657.031-.977.031h-.03c-.319 0-.638-.01-.956-.031-.124 0-.247-.01-.371-.031a9.291 9.291 0 0 1-.894-.083c-.062 0-.134-.01-.195-.02a23.7 23.7 0 0 1-1.152-.185 12.372 12.372 0 0 1-.997-.206 29.481 29.481 0 0 1-5.397-1.82 39.352 39.352 0 0 1-4.719-2.488 45.864 45.864 0 0 1-2.365-1.542c-.391-.278-.781-.555-1.172-.843a51.906 51.906 0 0 1-3.63-2.92c-.328-.298-.657-.596-.986-.905-.329-.298-.658-.606-.977-.904a51.309 51.309 0 0 1-2.345-2.406 42.153 42.153 0 0 1-.895-.987 49.821 49.821 0 0 1-2.385-2.879c-.299-.36-.576-.73-.854-1.1a57.985 57.985 0 0 1-2.951-4.308 82.87 82.87 0 0 1-.729-1.213c-.288-.483-.565-.976-.843-1.47a56.061 56.061 0 0 1-2.797-5.758c-.123-.288-.247-.576-.35-.863-.165-.37-.309-.751-.442-1.121-.205-.545-.4-1.09-.586-1.635-.185-.545-.359-1.1-.534-1.655a40.966 40.966 0 0 1-.463-1.614 31.382 31.382 0 0 1-.452-1.758c-.011-.062-.031-.123-.041-.185a48.874 48.874 0 0 1-1.018-5.881c-.051-.36-.082-.72-.113-1.08-.041-.38-.071-.751-.092-1.131a46.27 46.27 0 0 1-.104-2.087c-.01-.453-.021-.905-.021-1.357V52.784c0-23.102 18.723-41.834 41.825-41.855h.041c3.188 0 6.292.359 9.273 1.028a41.237 41.237 0 0 1 7.835 2.622 41.526 41.526 0 0 1 9.387 5.809 41.526 41.526 0 0 1 6.446 6.58 41.644 41.644 0 0 1 8.917 25.816z" clip-path="url(#hb)" fill="#ecc19c"/><path d="M148.613 200.741v.01H39.538v-.01a54.262 54.262 0 0 1 4.02-20.573v-.01c.4-.977.822-1.933 1.274-2.879a53.983 53.983 0 0 1 6.642-10.59 56.056 56.056 0 0 1 2.016-2.365 35.61 35.61 0 0 1 1.059-1.151c.36-.37.72-.74 1.09-1.11a54.274 54.274 0 0 1 5.892-5.079 55.912 55.912 0 0 1 3.177-2.19c1.09-.689 2.2-1.347 3.331-1.964.021-.02.041-.02.041-.02.442-.236.874-.493 1.306-.761a31.16 31.16 0 0 0 2.499-1.665c.411-.288.802-.586 1.192-.905a36.407 36.407 0 0 0 2.673-2.365c.277-.277.556-.555.833-.843a32.167 32.167 0 0 0 1.645-1.861c.258-.308.515-.627.751-.946.247-.318.483-.647.72-.977 1.83-2.55 3.3-5.356 4.38-8.349a34.405 34.405 0 0 0 2.015-11.649l7.948.041 8.173.041c0 4.04.689 7.916 1.964 11.515a34.31 34.31 0 0 0 4.329 8.359 34.484 34.484 0 0 0 6.631 7.042c.381.309.761.607 1.142.884.37.278.75.545 1.141.802a20.672 20.672 0 0 0 1.368.885c.421.257.854.514 1.285.751.071.02.134.051.185.093.905.504 1.8 1.028 2.674 1.573.421.257.843.524 1.254.823a41.236 41.236 0 0 1 2.498 1.758c0 .011.011.011.011.011h.01a55.052 55.052 0 0 1 5.881 5.079c9.908 9.869 16.025 23.502 16.025 38.595z" clip-path="url(#hb)" fill="#ecc19c"/><path d="M148.614 200.743H39.539a54.285 54.285 0 0 1 4.02-20.573c-.011-.011 0-.011 0-.011.391-.977.822-1.933 1.274-2.878a53.983 53.983 0 0 1 6.642-10.59 56.165 56.165 0 0 1 2.016-2.365 35.61 35.61 0 0 1 1.059-1.151c.36-.37.72-.74 1.09-1.11a54.164 54.164 0 0 1 9.069-7.269c1.09-.699 2.2-1.357 3.331-1.974.021-.02.041-.01.041-.01v-.01c.442-.247.874-.494 1.306-.751a31.773 31.773 0 0 0 3.671-2.591l.021.02c5.325 5.449 12.738 8.831 20.964 8.852h.082c8.225 0 15.669-3.393 21.015-8.842l.011-.01c.729.606 1.49 1.172 2.272 1.696.082.061.154.113.236.164.37.247.75.483 1.131.72.422.257.854.504 1.285.74.072.02.123.061.185.092.905.504 1.8 1.028 2.674 1.583.421.257.843.524 1.254.823a37.206 37.206 0 0 1 2.498 1.758h.021a54.453 54.453 0 0 1 5.881 5.089c9.909 9.872 16.026 23.505 16.026 38.598z" clip-path="url(#hb)" fill="#c7d4e2"/><path d="M135.938 84.05c0 .453-.011.905-.021 1.357-.02.936-.072 1.871-.154 2.796-.02.319-.052.637-.093.956a49.422 49.422 0 0 1-.555 3.928c-.083.432-.165.853-.258 1.275-.01.092-.03.175-.051.257-.083.432-.186.854-.288 1.275a8.077 8.077 0 0 1-.186.72 4.61 4.61 0 0 1-.133.545 49.465 49.465 0 0 1-.721 2.488c-.123.391-.246.771-.38 1.162-.011.041-.031.082-.041.123l-.37 1.048c-.041.103-.082.205-.124.319-.123.329-.246.658-.38.987-.154.401-.318.792-.483 1.183-.144.35-.298.699-.452 1.049-.02.062-.052.113-.072.174-.175.37-.339.741-.514 1.1-.175.38-.36.761-.556 1.142a57.62 57.62 0 0 1-1.172 2.231l-.556.987a60.434 60.434 0 0 1-5.253 7.649c-.258.339-.524.668-.802.987-.381.462-.772.915-1.162 1.357-.35.391-.699.781-1.059 1.162a55.735 55.735 0 0 1-3.023 3.013c-.205.206-.422.391-.638.586a27.8 27.8 0 0 1-1.059.925c-.277.247-.565.483-.854.72-.74.606-1.48 1.192-2.23 1.737-.309.237-.628.463-.946.679-.514.37-1.038.72-1.563 1.059-.288.195-.586.38-.885.555a37.177 37.177 0 0 1-3.156 1.758 31.03 31.03 0 0 1-2.591 1.182 3.199 3.199 0 0 1-.401.154c-.4.165-.812.319-1.213.452a21.9 21.9 0 0 1-1.521.483c-.35.103-.709.195-1.059.277a.142.142 0 0 1-.072.021c-.35.082-.699.165-1.049.226a2.446 2.446 0 0 1-.277.051c-.288.051-.576.103-.864.134-.411.062-.822.113-1.233.134-.143.02-.277.031-.422.031-.328.021-.657.031-.977.031h-.03c-.319 0-.638-.01-.956-.031-.124 0-.247-.01-.371-.031a9.291 9.291 0 0 1-.894-.083c-.062 0-.134-.01-.195-.02a23.7 23.7 0 0 1-1.152-.185 12.372 12.372 0 0 1-.997-.206 29.481 29.481 0 0 1-5.397-1.82 39.352 39.352 0 0 1-4.719-2.488 38.689 38.689 0 0 1-2.365-1.542c-.391-.278-.781-.555-1.172-.843a51.906 51.906 0 0 1-3.63-2.92c-.328-.298-.657-.596-.986-.905-.329-.298-.658-.606-.977-.904a51.309 51.309 0 0 1-2.345-2.406 42.153 42.153 0 0 1-.895-.987 49.821 49.821 0 0 1-2.385-2.879c-.299-.36-.576-.73-.854-1.1a57.985 57.985 0 0 1-2.951-4.308 82.87 82.87 0 0 1-.729-1.213c-.288-.483-.565-.976-.843-1.47a56.061 56.061 0 0 1-2.797-5.758c-.123-.288-.247-.576-.35-.863-.165-.37-.309-.751-.442-1.121-.205-.545-.4-1.09-.586-1.635-.185-.545-.359-1.1-.534-1.655a40.966 40.966 0 0 1-.463-1.614 31.382 31.382 0 0 1-.452-1.758c-.011-.062-.031-.123-.041-.185a48.874 48.874 0 0 1-1.018-5.881c-.051-.36-.082-.72-.113-1.08-.041-.38-.071-.751-.092-1.131a46.27 46.27 0 0 1-.104-2.087c-.01-.453-.021-.905-.021-1.357l6.684 13.14 11.484 5.007 13.581 1.224 10.076.915h.062l9.428.854 21.005 1.892 11.405-23.031zM127.023 26.968c-2.046 4.637-4.709 8.945-7.855 12.852-.185.227-.37.453-.565.679a57.633 57.633 0 0 1-24.562 17.324 56.011 56.011 0 0 1-7.855 2.262 60.05 60.05 0 0 1-5.49.895 59.52 59.52 0 0 1-6.528.36c-2.529 0-5.007-.165-7.443-.483a54.308 54.308 0 0 1-7.002-1.336 53.169 53.169 0 0 1-3.846-1.131 55.745 55.745 0 0 1-3.66-1.357v-4.246c0-23.102 18.723-41.834 41.825-41.855h.041c3.188 0 6.292.359 9.273 1.028a41.237 41.237 0 0 1 7.835 2.622 41.526 41.526 0 0 1 9.387 5.809 41.375 41.375 0 0 1 6.445 6.577z" clip-path="url(#hb)" fill="#543e36"/><path d="M135.938 52.784v8.235a64.177 64.177 0 0 1-17.314-20.48c-.01-.01-.01-.031-.021-.041a63.771 63.771 0 0 1-7.412-25.92 41.526 41.526 0 0 1 9.387 5.809 41.526 41.526 0 0 1 6.446 6.58 41.665 41.665 0 0 1 8.914 25.817zM57.12 56.013a44.008 44.008 0 0 0-1.244 2.375c-.153.318-.308.658-.462.987-2.025 4.503-3.044 8.924-3.188 12.914 0 .113-.011.236-.011.35V56.517c0-.576.021-1.142.021-1.697a134.6 134.6 0 0 0 4.884 1.193z" clip-path="url(#hb)" fill="#543e36"/><path d="M131.054 56.013a45.482 45.482 0 0 1 1.71 3.361c2.088 4.643 3.11 9.178 3.198 13.268v-16.13c0-.567-.021-1.134-.021-1.688-1.623.419-3.244.824-4.887 1.189z" clip-path="url(#hb)" fill="#543e36"/><path d="M130.972 60.167a.355.355 0 0 0-.309-.35c-1.48-.226-8.143-1.142-15.309-1.142-8.133 0-18.63 2.55-20.46 2.55H93.27c-.854 0-3.588-.555-7.084-1.141-4.02-.679-9.037-1.409-13.376-1.409-5.243 0-10.22.494-13.088.843-1.049.124-1.82.236-2.221.298a.355.355 0 0 0-.309.35l-.082 4.369c0 .154.093.288.236.35l.493.175c.73.278.669 13.448 4.596 16.738 2.334 1.943 4.411 3.053 13.16 3.053 5.069 0 8.256-1.367 11.279-5.449 2.18-2.93 4.112-9.86 4.112-9.86.586-2.858 2.714-3.084 3.054-3.105h.041c.071 0 2.468.041 3.095 3.105 0 0 1.933 6.93 4.112 9.86 3.022 4.082 6.21 5.449 11.278 5.449 8.75 0 10.826-1.11 13.16-3.053 3.928-3.29 3.866-16.46 4.596-16.738l.494-.175a.38.38 0 0 0 .236-.35l-.08-4.368zM86.875 75.753c-1.285 3.043-4.606 6.971-9.284 7.207-14.034.709-14.682-3.208-15.587-6.313-.915-3.105-1.151-5.83-.792-8.935.37-3.105 1.152-4.925 2.561-5.84.606-.401 1.265-.761 2.951-1.018 1.511-.226 3.845-.36 7.731-.36 2.251 0 4.359.175 6.24.483 4.997.802 8.369 2.499 8.369 4.174 0 1.143-.288 6.098-2.189 10.602zm39.284.894c-.904 3.105-1.552 7.022-15.586 6.313-4.678-.236-7.999-4.164-9.284-7.207-1.902-4.503-2.189-9.459-2.189-10.6 0-2.303 6.395-4.658 14.609-4.658 8.215 0 9.53.617 10.683 1.378 1.408.915 2.189 2.735 2.56 5.84.36 3.105.123 5.83-.793 8.934z" clip-path="url(#hb)" fill="#1a1a1a"/><g clip-path="url(#hb)" fill="#543e36"><path d="M94.123 90.65l-.011 10.138-.01 3.547v2.786l-.011 9.253v.01l-.01-.01h-.011l-.03-.021-40.436-20.582c-.011-.062-.031-.123-.041-.185a48.874 48.874 0 0 1-1.018-5.881c-.051-.36-.082-.72-.113-1.08-.041-.38-.071-.751-.092-1.131a46.27 46.27 0 0 1-.104-2.087c-.01-.453-.021-.905-.021-1.357V71.764c0 .175.011.35.011.524.082 2.971.555 6.241 1.47 9.582.71 2.57 1.594 4.945 2.622 7.063v.01c2.694 5.604 6.303 9.407 9.623 10.024.206.031.422.051.628.072a36.15 36.15 0 0 0 4.02.226c5.243 0 9.901-4.215 12.831-5.922l.062-.031c.154-.093.309-.185.442-.278.041-.031.082-.051.123-.072 2.468-1.409 6.025-2.303 9.994-2.313h.082z"/><path d="M135.947 71.764l-.01 12.286c0 3.085-.288 6.107-.822 9.038a57.558 57.558 0 0 1-.751 3.485l-9.49 13.705-30.782 6.097h-.01l-.011.01v-.01l-.03-25.727h.082c3.969.01 7.536.905 10.004 2.313a.758.758 0 0 1 .113.072c.144.093.298.185.452.278.01.01.03.021.051.031 2.941 1.707 7.588 5.925 12.832 5.925 1.388 0 2.734-.082 4.019-.226.216-.021.422-.041.638-.072 3.311-.617 6.93-4.421 9.613-10.024v-.01c1.027-2.118 1.912-4.493 2.621-7.063.926-3.393 1.409-6.703 1.471-9.716.01-.135.01-.259.01-.392z"/></g><ellipse cx="94.074" cy="103.955" rx="10.255" ry="3.17" clip-path="url(#hb)" fill="#ecc19c"/><g clip-path="url(#hb)" fill="#435363"><path d="M64.131 155.174v56.558h-4.369v-53.37a53.699 53.699 0 0 1 1.769-1.378 49.372 49.372 0 0 1 2.6-1.81zM124.021 155.185v56.547h4.369v-53.36z"/></g><g clip-path="url(#hb)"><g fill="#141720"><path d="M82.113 151.713l11.961 14.336 11.962-14.336z"/><path d="M94.074 225.437h-7.073l5.11-65.8c.215.837 3.712.837 3.927 0l5.11 65.8h-7.074z"/></g><g fill="#e7ecf2"><path d="M94.07 151.638l-.03.051-.011.021-4.966 8.338-4.637 7.772-12.554-17.447a20.29 20.29 0 0 0 1.183-.915l.021.021a34.2 34.2 0 0 0 6.621-6.991l14.343 9.13.03.02z"/><path d="M116.278 150.373l-12.554 17.447-4.637-7.772-4.977-8.338-.041-.072 14.436-9.191a34.484 34.484 0 0 0 6.631 7.042c.382.308.761.607 1.142.884z"/></g></g></svg><svg id="star" data-name="Layer 1" width="64" height="64" viewBox="0 0 64 64" x="124" y="107.53" xmlns="http://www.w3.org/2000/svg"><defs><style>.icls-1{fill:#d4953f}</style></defs><title>star</title><path class="icls-1" d="M32 0l-8 24H0l20 16-8 24 20-16 20 16-8-24 20-16H40z"/></svg><svg id="twitter" data-name="Layer 1" width="51.78" height="42.06" viewBox="0 0 51.78 42.06" x="206.4" y="128" xmlns="http://www.w3.org/2000/svg"><defs><style>.jcls-1{fill:#fff}</style></defs><title>twitter</title><path class="jcls-1" d="M51.78 5a22.23 22.23 0 0 1-5.32 5.52v1.38a30.15 30.15 0 0 1-1.25 8.53 30.81 30.81 0 0 1-3.76 8.13 32.1 32.1 0 0 1-6.06 6.92 27 27 0 0 1-8.48 4.8 31 31 0 0 1-10.62 1.8A29.47 29.47 0 0 1 0 37.29a22.71 22.71 0 0 0 2.56.13 20.78 20.78 0 0 0 13.17-4.53 10.63 10.63 0 0 1-9.92-7.36 13.45 13.45 0 0 0 2 .16 11 11 0 0 0 2.79-.36 10.44 10.44 0 0 1-6.09-3.67 10.25 10.25 0 0 1-2.41-6.75v-.13a10.52 10.52 0 0 0 4.8 1.34 10.6 10.6 0 0 1-3.45-3.78 10.34 10.34 0 0 1-1.28-5.07 10.4 10.4 0 0 1 1.45-5.33 30.08 30.08 0 0 0 9.71 7.83A29.57 29.57 0 0 0 25.53 13a11.79 11.79 0 0 1-.26-2.43 10.23 10.23 0 0 1 3-7.48 10.64 10.64 0 0 1 15 0l.21.22A20.81 20.81 0 0 0 50.33.8a10.3 10.3 0 0 1-4.67 5.85A21.14 21.14 0 0 0 51.78 5z"/></svg><svg id="wifi" data-name="Layer 1" width="60" height="64" viewBox="0 0 60 64" x="64" y="107.53" xmlns="http://www.w3.org/2000/svg"><defs><style>.kcls-1{fill:#d4953e}</style></defs><title>wifi</title><path class="kcls-1" d="M29.88 0A55.39 55.39 0 0 0 0 8.72l4.22 6.48a47.32 47.32 0 0 1 25.66-7.28 47.31 47.31 0 0 1 25.9 7.28L60 8.72A55.53 55.53 0 0 0 29.88 0zm0 24a31.08 31.08 0 0 0-17 5l4.22 6.72A23.09 23.09 0 0 1 29.8 32a24.17 24.17 0 0 1 13 3.76L47 29a32.37 32.37 0 0 0-17.2-5h.07zm0 24a8 8 0 1 0 8 8 8 8 0 0 0-8-8z"/></svg><svg id="youtube" data-name="Layer 1" width="34.75" height="42" viewBox="0 0 34.75 42" x="64" y="59.53" xmlns="http://www.w3.org/2000/svg"><defs><style>.lcls-1{fill:#fff}</style></defs><title>youtube</title><path class="lcls-1" d="M22.13 29.15v5q0 1.57-.91 1.57a1.5 1.5 0 0 1-1.06-.52v-7.11a1.5 1.5 0 0 1 1.06-.54q.91 0 .91 1.6zm7.92 0v1.08h-2.1v-1.06q0-1.59 1.06-1.59t1 1.59zM7.42 24h2.5v-2.14h-7.3v2.2h2.46V37.4h2.34V24zm6.75 13.4h2.09V25.82h-2.09v8.86a1.86 1.86 0 0 1-1.31 1 .48.48 0 0 1-.49-.47 6.52 6.52 0 0 1 0-.82v-8.57h-2.14V35a5.79 5.79 0 0 0 .19 1.71 1.26 1.26 0 0 0 1.36.87 3.43 3.43 0 0 0 2.39-1.43v1.25zm10.05-3.47v-4.6A8.33 8.33 0 0 0 24 27a1.63 1.63 0 0 0-1.67-1.31A2.82 2.82 0 0 0 20.16 27v-5.1h-2.08v15.5h2.09v-1.13a2.91 2.91 0 0 0 2.18 1.31A1.62 1.62 0 0 0 24 36.27a8.61 8.61 0 0 0 .22-2.35zm7.92-.24v-.3H30a11.6 11.6 0 0 1 0 1.43.9.9 0 0 1-.94.85q-1.08 0-1.08-1.61V32h4.19v-2.41a4.65 4.65 0 0 0-.66-2.72 3.2 3.2 0 0 0-5 0 4.52 4.52 0 0 0-.66 2.72v4.05a4.4 4.4 0 0 0 .66 2.72 3 3 0 0 0 2.49 1.2 2.9 2.9 0 0 0 3-2.51 10.31 10.31 0 0 0 .09-1.36zM17.89 12.3V7.38q0-1.61-1-1.61t-1 1.61v4.92q0 1.64 1 1.64t1-1.64zm16.85 17.6a40.6 40.6 0 0 1-.61 8.2 4.45 4.45 0 0 1-1.36 2.32 4.1 4.1 0 0 1-2.39 1.08 125.31 125.31 0 0 1-13 .49 125.31 125.31 0 0 1-13-.49A4.15 4.15 0 0 1 2 40.42 4.28 4.28 0 0 1 .63 38.1 39.76 39.76 0 0 1 0 29.9a40.6 40.6 0 0 1 .61-8.2A4.45 4.45 0 0 1 2 19.37a4.25 4.25 0 0 1 2.41-1.1q4.29-.47 13-.47t13 .47a4.4 4.4 0 0 1 3.75 3.42 39.76 39.76 0 0 1 .58 8.21zM11.35 0h2.39l-2.83 9.35v6.35H8.57V9.35a39.68 39.68 0 0 0-1.43-5Q6.27 2 5.61 0H8.1l1.67 6.16zM20 7.8v4.1a4.59 4.59 0 0 1-.66 2.76 2.88 2.88 0 0 1-2.49 1.19 2.9 2.9 0 0 1-2.46-1.19 4.68 4.68 0 0 1-.66-2.76V7.8a4.59 4.59 0 0 1 .66-2.74 2.9 2.9 0 0 1 2.46-1.19 2.88 2.88 0 0 1 2.49 1.19A4.59 4.59 0 0 1 20 7.8zM27.87 4v11.7h-2.13v-1.27a3.37 3.37 0 0 1-2.41 1.45A1.31 1.31 0 0 1 22 15a6 6 0 0 1-.19-1.76V4h2.13v8.6a6.14 6.14 0 0 0 0 .82.49.49 0 0 0 .47.52 1.87 1.87 0 0 0 1.31-1V4h2.16z"/></svg></svg>
