<?xml version="1.0" encoding="iso-8859-1"?>
<!-- Generator: Adobe Illustrator 19.0.0, SVG Export Plug-In . SVG Version: 6.00 Build 0)  -->
<svg version="1.1" id="Layer_1" xmlns="http://www.w3.org/2000/svg" xmlns:xlink="http://www.w3.org/1999/xlink" x="0px" y="0px"
	 viewBox="0 0 512 512" style="enable-background:new 0 0 512 512;" xml:space="preserve">
<path style="fill:#A35895;" d="M512,256c0,47.966-13.191,92.856-36.152,131.228c-19.775,33.054-46.789,61.278-78.855,82.463
	c-13.024,8.616-26.881,16.066-41.426,22.217c-24.56,10.381-51.086,17.032-78.855,19.253c-6.828,0.555-13.746,0.833-20.719,0.833
	c-6.973,0-13.879-0.278-20.707-0.822c-27.769-2.232-54.294-8.883-78.855-19.264c-14.534-6.14-28.391-13.59-41.415-22.206
	c-32.066-21.185-59.08-49.398-78.855-82.452C13.202,348.867,0,303.977,0,256C0,114.612,114.618,0.006,255.994,0.006
	C397.382,0.006,512,114.612,512,256z"/>
<path style="fill:#F0A037;" d="M300.892,160.558h30.497h48.804v-30.497h-48.804V96.24h-30.497v33.822h-3.963
	c-24.766,0-44.842,20.077-44.842,44.842l0,0c0,24.766,20.077,44.842,44.842,44.842h38.42c7.923,0,14.345,6.423,14.345,14.345l0,0
	c0,7.923-6.423,14.345-14.345,14.345h-3.962h-30.497h-48.805v30.497h48.805v33.822h30.497v-33.822h3.962
	c24.766,0,44.842-20.077,44.842-44.842v-0.001c0-24.766-20.077-44.842-44.842-44.842h-38.42c-7.923,0-14.345-6.423-14.345-14.345
	l0,0c0-7.923,6.423-14.345,14.345-14.345L300.892,160.558L300.892,160.558z"/>
<path style="fill:#E6E6E6;" d="M115.018,254.079v215.623c-32.066-21.185-59.08-49.398-78.855-82.452V254.079L115.018,254.079
	L115.018,254.079z"/>
<path style="fill:#53B8D3;" d="M235.287,119.731v391.442c-27.769-2.232-54.294-8.883-78.855-19.264V119.731L235.287,119.731
	L235.287,119.731z"/>
<path style="fill:#55C6A1;" d="M355.568,382.876v109.033c-24.56,10.381-51.086,17.032-78.855,19.253V382.876L355.568,382.876
	L355.568,382.876z"/>
<path style="fill:#42577F;" d="M475.848,10.92v376.308c-19.775,33.054-46.789,61.278-78.855,82.463V10.92H475.848z"/>
<g>
</g>
<g>
</g>
<g>
</g>
<g>
</g>
<g>
</g>
<g>
</g>
<g>
</g>
<g>
</g>
<g>
</g>
<g>
</g>
<g>
</g>
<g>
</g>
<g>
</g>
<g>
</g>
<g>
</g>
</svg>
